<?xml version="1.0" encoding="utf-8" standalone="no" ?>
<!DOCTYPE svg PUBLIC "-//W3C//DTD SVG 1.1//EN" "http://www.w3.org/Graphics/SVG/1.1/DTD/svg11.dtd">
<svg width="900" height="900" viewBox="0 0 150 150" version="1.1" xmlns="http://www.w3.org/2000/svg">

  <clipPath id="clipHead">
    <circle class="head-clip" cx="50" cy="50" r="24.5" fill="green"  />
  </clipPath>
<path d="M 60 110 L 87 105 L 85 95 L 100 91 L 97 76 L 142 79 L 147 44 L 82 51 L 89 86 L 80 91 L 81 101 L 60 105 Z" fill="yellow" stroke="transparent"/>

<path d="M 60 110 L 87 105 L 85 95 L 100 91 L 97 76 L 142 79 L 90 70 L 94 86 L 80 91 L 81 101 L 60 105 Z" fill="#DAA520" stroke="transparent"/>

<path d="M 60 110 L 87 105 L 85 97 l -0.5 -3 l -0.5 3 l -0.5 -2 l -0.5 3 l -0.5 -3 l -0.5 2 L 80 91 L 81 101 L 60 105 Z" fill="#964B00" stroke="transparent"/>

<path d="M 60 110 L 87 105 L 85 95 L 100 91 L 97 76 L 142 79 L 147 44 L 82 51 L 89 86 L 80 91 L 81 101 L 60 105 Z" fill="transparent" stroke="black"/>
  <ellipse class="left-foot" cx="35" cy="115" rx="5" ry="15" fill="yellow" stroke="black" transform="rotate(45 35 115)"/>
  <ellipse class="right-foot" cx="65" cy="115" rx="5" ry="15" fill="yellow" stroke="black" transform="rotate(-45 65 115)"/>




  <path d="M 31 120 L 27 126" stroke="black" />
<path d="M 29 120 L 25 126" stroke="black" />
<path d="M 69 120 L 73 126" stroke="black" />
<path d="M 71 120 L 75 126" stroke="black" />
<circle class="body" cx="50" cy="90" r="30" fill="yellow" stroke="black" />
  <circle class="head" cx="50" cy="50" r="25" fill="yellow" stroke="black" />

<ellipse class="left-hand" cx="33" cy="90" rx="5" ry="15" fill="yellow" stroke="black" transform="rotate(-45 33 90)"/>
<ellipse class="right-hand" cx="67" cy="90" rx="5" ry="15" fill="yellow" stroke="black" transform="rotate(45 67 90)"/>
  <path d="M 63 95 L 59 101" stroke="black" />
<path d="M 61 95 L 57 101" stroke="black" />

<path d="M 37 95 L 41 101" stroke="black" />
<path d="M 39 95 L 43 101" stroke="black" />

  <circle class="left-eye" cx="40" cy="45" r="5" fill="black" />
  <circle class="left-eye-glint" cx="40" cy="43" r="1.6" fill="white" />
  <circle class="right-eye" cx="60" cy="45" r="5" fill="black" />
  <circle class="right-eye-glint" cx="60" cy="43" r="1.6" fill="white" />
  <circle class="nose" cx="50" cy="50" r="1" fill="black" />

  <g clip-path="url(#clipHead)">
    <circle class="left-cheek" cx="34" cy="66" r="8" fill="red" stroke="black" />
    <circle class="right-cheek" cx="66" cy="66" r="8" fill="red" stroke="black" />
  </g>

  <path d=" M 56 56 A 5 5 0 0 1 50 57 A -5 -5 0 0 1 44 56 " fill="transparent" stroke="black" />

  <path d="M 32 32 L 22 12 L 37 28.3" fill="yellow" stroke="black" />
  <path d="M 27 22 L 22 12 L 29.5 20" fill="black"  />


  <path d="M 68 32 L 78 12 L 63 28.3" fill="yellow" stroke="black" />
  <path d="M 73 22 L 78 12 L 70.5 20" fill="black"  />


</svg>
